<svg width="20" height="20" viewBox="0 0 20 20" fill="none" xmlns="http://www.w3.org/2000/svg">
<path d="M9.9984 17.9996C8.94748 18.0016 7.90655 17.7956 6.93563 17.3934C5.96471 16.9912 5.083 16.4007 4.34135 15.6562C3.61096 14.9272 3.02869 14.0636 2.62669 13.1132C2.21061 12.1284 1.99747 11.0698 2.00002 10.0007C1.9981 8.9497 2.20418 7.90871 2.60638 6.93772C3.00858 5.96672 3.59896 5.08491 4.34348 4.34311C5.07214 3.61283 5.93531 3.03055 6.88535 2.62845C7.87073 2.21158 8.93007 1.99772 10 1.99965C11.0508 1.99772 12.0917 2.2038 13.0625 2.606C14.0333 3.00821 14.9149 3.59859 15.6565 4.34311C16.3871 5.07204 16.9696 5.93559 17.3717 6.88604C17.7883 7.87148 18.002 8.9308 18 10.0007C18 11.0812 17.7883 12.1287 17.3717 13.1154C16.9701 14.066 16.3876 14.9294 15.6565 15.6578C14.9278 16.3883 14.0644 16.9707 13.1141 17.373C12.1281 17.7887 11.0685 18.0018 9.9984 17.9996ZM10 3.06631C6.17601 3.06631 3.06669 6.17724 3.06669 9.99963C3.06669 13.822 6.17601 16.933 10 16.933C13.824 16.933 16.9333 13.822 16.9333 9.99963C16.9333 6.17724 13.824 3.06631 10 3.06631Z" fill="currentColor"/>
<path d="M10 12.9996C7.9184 12.9996 5.95467 12.7166 4.47307 12.1996C3.73067 11.9416 3.14293 11.6361 2.7248 11.2921C2.24373 10.8971 2 10.4621 2 9.99963C2 9.53813 2.24373 9.10263 2.7248 8.70713C3.14293 8.36313 3.73067 8.05763 4.47307 7.80013C5.95467 7.28463 7.9168 6.99963 10 6.99963C12.0816 6.99963 14.0453 7.28263 15.5269 7.79963C16.2693 8.05763 16.8571 8.36313 17.2752 8.70713C17.7563 9.10213 18 9.53713 18 9.99963C18 10.4611 17.7563 10.8966 17.2752 11.2921C16.8571 11.6361 16.2693 11.9416 15.5269 12.1991C14.0453 12.7146 12.0816 12.9996 10 12.9996ZM10 7.99963C5.91307 7.99963 3.06667 9.05313 3.06667 9.99963C3.06667 10.9446 5.91467 11.9996 10 11.9996C14.0853 11.9996 16.9333 10.9446 16.9333 9.99963C16.9333 9.05463 14.0869 7.99963 10 7.99963Z" fill="currentColor"/>
<path d="M10 17.9996C9.5385 17.9996 9.103 17.7559 8.7075 17.2748C8.3635 16.8567 8.058 16.269 7.8005 15.5266C7.285 14.045 7 12.0828 7 9.99963C7 7.91643 7.283 5.9543 7.8 4.4727C8.058 3.7303 8.3635 3.14257 8.7075 2.72443C9.1025 2.24337 9.5375 1.99963 10 1.99963C10.463 1.99963 10.897 2.24337 11.2925 2.72443C11.6365 3.14257 11.942 3.7303 12.1995 4.4727C12.715 5.9543 13 7.91643 13 9.99963C13 12.0828 12.717 14.045 12.2 15.5266C11.942 16.269 11.6365 16.8567 11.2925 17.2748C10.8975 17.7575 10.4615 17.9996 10 17.9996ZM10 3.0663C9.055 3.0663 8 5.9143 8 9.99963C8 14.0866 9.0535 16.933 10 16.933C10.9465 16.933 12 14.0866 12 9.99963C12 5.9127 10.945 3.0663 10 3.0663Z" fill="currentColor"/>
</svg>
